<svg width="200" height="51" viewBox="0 0 200 51" fill="none" xmlns="http://www.w3.org/2000/svg">
<g id="logo-hanzo">
<path d="M78.1496 20.4543L40.1666 19.0612L41.2133 45.214L55.097 43.2111L55.0535 37.8152L64.3093 37.4685L64.5267 41.4279L78.5844 39.295L78.1465 20.4543H78.1496ZM63.713 28.9552H54.7491V20.4976H63.713V28.9552Z" fill="#FF007F"/>
<path d="M0 17.1449H13.9707L13.5327 9.39936L0 9.92254V17.1449Z" fill="#FF007F"/>
<path d="M0.655167 17.9282L14.6693 18.3647V22.4541H24.186V18.7114L38.1567 18.9312L38.6381 45.7372L24.7979 47.8671L24.711 35.8154L15.1508 35.8587L15.5856 48.7804H1.48446L0.655167 17.9282Z" fill="#FF007F"/>
<path d="M26.544 51L40.6917 48.3036V51H26.544Z" fill="#FF007F"/>
<path d="M23.1832 8.96597L37.1974 8.09606L37.5918 17.9282H23.4876L23.1832 8.96597Z" fill="#FF007F"/>
<path d="M39.1195 8.09604L76.5341 6.48625L77.1895 18.4946L39.5979 17.9281L39.1195 8.09604Z" fill="#FF007F"/>
<path d="M42.6538 47.9104L56.668 45.4307V50.0001L42.6538 50.3932V47.9104Z" fill="#FF007F"/>
<path d="M66.0554 43.9076L79.9826 41.3846V48.7803L66.0554 49.3468V43.9076Z" fill="#FF007F"/>
<path d="M82.1652 40.9914L96.0924 38.4251L96.4869 47.9104L82.1652 48.3036V40.9914Z" fill="#FF007F"/>
<path d="M98.1889 38.0784L105.699 47.2572L119.931 46.7805L119.101 34.2489L98.1889 38.0784Z" fill="#FF007F"/>
<path d="M78.9355 6.1798L93.0801 5.61327L102.556 17.0582L102.205 5.04985L116.527 4.61335L116.962 19.2779L79.2833 18.4947L78.9355 6.1798Z" fill="#FF007F"/>
<path d="M80.2021 20.4976L117.53 21.4542L118.011 33.0725L96.7477 36.3788L94.8282 33.9424L94.7847 36.7719L80.55 39.0783L80.2021 20.4976Z" fill="#FF007F"/>
<path d="M118.664 4.61334L128.575 4.13659L156.343 8.61614V17.278L153.46 19.7144L130.19 19.2779L130.715 18.6247L119.146 18.9312L118.664 4.61334Z" fill="#FF007F"/>
<path d="M130.454 22.0641L154.072 22.7173L147.304 28.6766L120.235 32.5927V30.7662L130.454 22.0641Z" fill="#FF007F"/>
<path d="M121.589 34.0291L148.133 29.4598L147.086 30.7229L159.007 30.1997L159.485 44.6475L121.897 46.344L121.589 34.0291Z" fill="#FF007F"/>
<path d="M131.106 1.17708L158.526 7.44287V1.56714L131.106 1.17708Z" fill="#FF007F"/>
<path d="M181.227 12.4456L163.284 8.35608C163.284 8.35608 168.872 -0.0860179 179.743 0.000662969C190.613 0.0873438 196.375 9.18264 196.375 9.18264C196.375 9.18264 198.646 13.3155 199.17 15.9716L197.468 15.9283L197.555 17.1047L197.993 16.888L198.124 21.2406L182.668 20.4573C182.668 20.4573 181.883 15.888 178.478 15.758C175.074 15.628 173.894 18.021 173.503 19.7175C172.148 19.8475 157.873 19.7175 157.873 19.7175C157.873 19.7175 158.091 13.1019 161.147 9.3622L181.23 12.4518L181.227 12.4456Z" fill="#FF007F"/>
<path d="M158.526 22.9339L174.025 23.4138V24.2404L158.526 26.6767V22.9339Z" fill="#FF007F"/>
<path d="M174.984 24.8038C174.984 24.8038 175.553 28.7632 179.044 29.0233C182.535 29.2833 183.324 27.3268 183.324 27.3268C183.324 27.3268 184.197 26.2835 184.371 24.3239L200 24.584C200 24.584 200.13 40.4683 183.321 44.7311C176.336 45.9942 168.782 41.8149 168.782 41.8149C168.782 41.8149 161.449 36.8122 159.83 27.5404L174.981 24.7976L174.984 24.8038Z" fill="#FF007F"/>
</g>
</svg>
